<svg width="67" height="67" viewBox="0 0 67 67" fill="none" xmlns="http://www.w3.org/2000/svg">
<path fillRule="evenodd" clipRule="evenodd" d="M16.75 22.3333C16.75 20.7915 17.9999 19.5417 19.5417 19.5417H47.4583C49.0001 19.5417 50.25 20.7915 50.25 22.3333C50.25 23.8751 49.0001 25.125 47.4583 25.125H19.5417C17.9999 25.125 16.75 23.8751 16.75 22.3333Z" fill="#060302"/>
<path fillRule="evenodd" clipRule="evenodd" d="M16.75 33.5C16.75 31.9582 17.9999 30.7083 19.5417 30.7083H33.5C35.0418 30.7083 36.2917 31.9582 36.2917 33.5C36.2917 35.0418 35.0418 36.2917 33.5 36.2917H19.5417C17.9999 36.2917 16.75 35.0418 16.75 33.5Z" fill="#060302"/>
<path fillRule="evenodd" clipRule="evenodd" d="M16.75 44.6667C16.75 43.1249 17.9999 41.875 19.5417 41.875H47.4583C49.0001 41.875 50.25 43.1249 50.25 44.6667C50.25 46.2085 49.0001 47.4583 47.4583 47.4583H19.5417C17.9999 47.4583 16.75 46.2085 16.75 44.6667Z" fill="#060302"/>
</svg>
