<svg width="20" height="20" viewBox="0 0 20 20" fill="none" xmlns="http://www.w3.org/2000/svg">
<rect width="20" height="20" fill="white"/>
<path fillRule="evenodd" clipRule="evenodd" d="M8.33317 13.5417C11.2097 13.5417 13.5415 11.2098 13.5415 8.33334C13.5415 5.45685 11.2097 3.125 8.33317 3.125C5.45669 3.125 3.12484 5.45685 3.12484 8.33334C3.12484 11.2098 5.45669 13.5417 8.33317 13.5417ZM14.7915 8.33334C14.7915 11.9002 11.9 14.7917 8.33317 14.7917C4.76633 14.7917 1.87484 11.9002 1.87484 8.33334C1.87484 4.7665 4.76633 1.875 8.33317 1.875C11.9 1.875 14.7915 4.7665 14.7915 8.33334Z" fill="#060302"/>
<path fillRule="evenodd" clipRule="evenodd" d="M13.7841 13.7839C14.0282 13.5399 14.4239 13.5399 14.668 13.7839L17.9421 17.058C18.1862 17.3021 18.1862 17.6978 17.9421 17.9419C17.698 18.186 17.3023 18.186 17.0582 17.9419L13.7841 14.6678C13.5401 14.4237 13.5401 14.028 13.7841 13.7839Z" fill="#060302"/>
</svg>
