<svg width="25" height="25" viewBox="0 0 25 25" fill="none" xmlns="http://www.w3.org/2000/svg">
<path d="M11.3047 1.5625C11.6318 0.555974 13.0557 0.555977 13.3828 1.5625L15.5324 8.17836C15.6787 8.62849 16.0981 8.93325 16.5714 8.93325H23.5277C24.5861 8.93325 25.0261 10.2875 24.1699 10.9096L18.5421 14.9984C18.1592 15.2766 17.999 15.7697 18.1452 16.2199L20.2949 22.8357C20.6219 23.8422 19.4699 24.6792 18.6137 24.0572L12.9859 19.9683C12.603 19.6901 12.0845 19.6901 11.7016 19.9683L6.07382 24.0572C5.21762 24.6792 4.06561 23.8422 4.39265 22.8357L6.54227 16.2199C6.68852 15.7697 6.5283 15.2766 6.14539 14.9984L0.517613 10.9096C-0.33859 10.2875 0.101442 8.93325 1.15977 8.93325H8.11609C8.58938 8.93325 9.00885 8.62849 9.15511 8.17836L11.3047 1.5625Z" fill="#3787FF"/>
</svg>
