<svg width="36" height="37" viewBox="0 0 36 37" fill="none" xmlns="http://www.w3.org/2000/svg">
<g clip-path="url(#clip0_18_9137)">
<mask id="path-1-inside-1_18_9137" fill="white">
<path d="M35.043 9.72826C34.7572 9.53481 34.3942 9.49571 34.0737 9.62384L24.36 13.5093V10.5895C24.36 8.78751 22.894 7.32147 21.092 7.32147H3.26808C1.46611 7.32147 0 8.78751 0 10.5895V26.1855C0 27.9875 1.46611 29.4535 3.26808 29.4535H21.092C22.894 29.4535 24.36 27.9875 24.36 26.1855V23.2657L34.0737 27.1511C34.1984 27.201 34.3294 27.2255 34.4599 27.2255C34.6648 27.2255 34.8684 27.1649 35.043 27.0467C35.3288 26.8532 35.5 26.5306 35.5 26.1855V10.5895C35.5 10.2444 35.3288 9.92178 35.043 9.72826ZM22.2799 26.1855C22.2799 26.8405 21.747 27.3734 21.092 27.3734H3.26808C2.61306 27.3734 2.08008 26.8405 2.08008 26.1855V10.5895C2.08008 9.93447 2.61306 9.40155 3.26808 9.40155H21.092C21.747 9.40155 22.2799 9.93447 22.2799 10.5895V26.1855ZM33.4199 24.6494L24.36 21.0254V15.7496L33.4199 12.1256V24.6494Z"/>
</mask>
<path d="M35.043 9.72826C34.7572 9.53481 34.3942 9.49571 34.0737 9.62384L24.36 13.5093V10.5895C24.36 8.78751 22.894 7.32147 21.092 7.32147H3.26808C1.46611 7.32147 0 8.78751 0 10.5895V26.1855C0 27.9875 1.46611 29.4535 3.26808 29.4535H21.092C22.894 29.4535 24.36 27.9875 24.36 26.1855V23.2657L34.0737 27.1511C34.1984 27.201 34.3294 27.2255 34.4599 27.2255C34.6648 27.2255 34.8684 27.1649 35.043 27.0467C35.3288 26.8532 35.5 26.5306 35.5 26.1855V10.5895C35.5 10.2444 35.3288 9.92178 35.043 9.72826ZM22.2799 26.1855C22.2799 26.8405 21.747 27.3734 21.092 27.3734H3.26808C2.61306 27.3734 2.08008 26.8405 2.08008 26.1855V10.5895C2.08008 9.93447 2.61306 9.40155 3.26808 9.40155H21.092C21.747 9.40155 22.2799 9.93447 22.2799 10.5895V26.1855ZM33.4199 24.6494L24.36 21.0254V15.7496L33.4199 12.1256V24.6494Z" fill="#060302"/>
<path d="M35.043 9.72826L36.2138 7.99911L36.2135 7.99892L35.043 9.72826ZM34.0737 9.62384L33.2984 7.68485L33.2981 7.68496L34.0737 9.62384ZM24.36 13.5093H22.2718V16.5937L25.1355 15.4482L24.36 13.5093ZM24.36 23.2657L25.1355 21.3268L22.2718 20.1813V23.2657H24.36ZM34.0737 27.1511L33.2981 29.09L33.2983 29.0901L34.0737 27.1511ZM35.043 27.0467L33.8722 25.3176L33.8722 25.3176L35.043 27.0467ZM33.4199 24.6494L32.6444 26.5882L35.5082 27.7338V24.6494H33.4199ZM24.36 21.0254H22.2718V22.4392L23.5844 22.9642L24.36 21.0254ZM24.36 15.7496L23.5844 13.8107L22.2718 14.3358V15.7496H24.36ZM33.4199 12.1256H35.5082V9.04122L32.6444 10.1867L33.4199 12.1256ZM36.2135 7.99892C35.354 7.41714 34.262 7.29957 33.2984 7.68485L34.8489 11.5628C34.5263 11.6918 34.1604 11.6525 33.8725 11.4576L36.2135 7.99892ZM33.2981 7.68496L23.5845 11.5704L25.1355 15.4482L34.8492 11.5627L33.2981 7.68496ZM26.4482 13.5093V10.5895H22.2718V13.5093H26.4482ZM26.4482 10.5895C26.4482 7.63421 24.0473 5.23324 21.092 5.23324V9.40971C21.7407 9.40971 22.2718 9.94081 22.2718 10.5895H26.4482ZM21.092 5.23324H3.26808V9.40971H21.092V5.23324ZM3.26808 5.23324C0.312865 5.23324 -2.08824 7.63415 -2.08824 10.5895H2.08824C2.08824 9.94087 2.61935 9.40971 3.26808 9.40971V5.23324ZM-2.08824 10.5895V26.1855H2.08824V10.5895H-2.08824ZM-2.08824 26.1855C-2.08824 29.1408 0.312866 31.5417 3.26808 31.5417V27.3653C2.61935 27.3653 2.08824 26.8341 2.08824 26.1855H-2.08824ZM3.26808 31.5417H21.092V27.3653H3.26808V31.5417ZM21.092 31.5417C24.0473 31.5417 26.4482 29.1408 26.4482 26.1855H22.2718C22.2718 26.8342 21.7407 27.3653 21.092 27.3653V31.5417ZM26.4482 26.1855V23.2657H22.2718V26.1855H26.4482ZM23.5845 25.2046L33.2981 29.09L34.8492 25.2123L25.1355 21.3268L23.5845 25.2046ZM33.2983 29.0901C33.6728 29.2398 34.0672 29.3138 34.4599 29.3138V25.1373C34.5916 25.1373 34.7239 25.1622 34.8491 25.2122L33.2983 29.0901ZM34.4599 29.3138C35.0759 29.3138 35.6884 29.1316 36.2138 28.7758L33.8722 25.3176C34.0484 25.1982 34.2538 25.1373 34.4599 25.1373V29.3138ZM36.2138 28.7759C37.0732 28.194 37.5882 27.2238 37.5882 26.1855H33.4118C33.4118 25.8375 33.5844 25.5124 33.8722 25.3176L36.2138 28.7759ZM37.5882 26.1855V10.5895H33.4118V26.1855H37.5882ZM37.5882 10.5895C37.5882 9.55135 37.0732 8.58103 36.2138 7.99911L33.8722 11.4574C33.5844 11.2625 33.4118 10.9374 33.4118 10.5895H37.5882ZM20.1917 26.1855C20.1917 25.6872 20.5937 25.2852 21.092 25.2852V29.4617C22.9003 29.4617 24.3682 27.9938 24.3682 26.1855H20.1917ZM21.092 25.2852H3.26808V29.4617H21.092V25.2852ZM3.26808 25.2852C3.7662 25.2852 4.16831 25.687 4.16831 26.1855H-0.00815724C-0.00815724 27.994 1.45992 29.4617 3.26808 29.4617V25.2852ZM4.16831 26.1855V10.5895H-0.00815724V26.1855H4.16831ZM4.16831 10.5895C4.16831 11.0879 3.76621 11.4898 3.26808 11.4898V7.31331C1.45992 7.31331 -0.00815724 8.78101 -0.00815724 10.5895H4.16831ZM3.26808 11.4898H21.092V7.31331H3.26808V11.4898ZM21.092 11.4898C20.5937 11.4898 20.1917 11.0878 20.1917 10.5895H24.3682C24.3682 8.78117 22.9003 7.31331 21.092 7.31331V11.4898ZM20.1917 10.5895V26.1855H24.3682V10.5895H20.1917ZM34.1955 22.7105L25.1356 19.0865L23.5844 22.9642L32.6444 26.5882L34.1955 22.7105ZM26.4482 21.0254V15.7496H22.2718V21.0254H26.4482ZM25.1356 17.6885L34.1955 14.0645L32.6444 10.1867L23.5844 13.8107L25.1356 17.6885ZM31.3317 12.1256V24.6494H35.5082V12.1256H31.3317Z" fill="#A2BF00" mask="url(#path-1-inside-1_18_9137)"/>
</g>
<defs>
<clipPath id="clip0_18_9137">
<rect width="35.5" height="35.5" fill="white" transform="translate(0 0.637695)"/>
</clipPath>
</defs>
</svg>
