<svg width="43" height="35" viewBox="0 0 43 35" fill="none" xmlns="http://www.w3.org/2000/svg">
<path fillRule="evenodd" clipRule="evenodd" d="M2.49119 19.9599H33.6308L23.0535 30.4197C22.1197 31.3723 22.1394 32.8951 23.0831 33.8356C24.0341 34.7688 25.574 34.7883 26.5374 33.8648L41.3204 19.246C41.7836 18.7904 42.0423 18.1716 42.0423 17.5332V17.5235C42.0423 17.2092 41.9758 16.8851 41.8501 16.5903C41.7245 16.2955 41.5422 16.0299 41.3204 15.8009L26.5374 1.18209C25.5642 0.258667 24.0341 0.278159 23.0831 1.21132C22.1296 2.1518 22.1197 3.67459 23.0535 4.62725L33.6308 15.087H2.49119C1.13361 15.087 0.0273438 16.181 0.0273438 17.5235C0.0273438 18.866 1.13361 19.9599 2.49119 19.9599Z" fill="#EB420E"/>
</svg>
